<svg xmlns="http://www.w3.org/2000/svg" width="176.494" height="308.947" viewBox="0 0 176.494 308.947">
  <g id="Group_28" data-name="Group 28" transform="translate(-1149.092 -2586.51)">
    <g id="Group_22" data-name="Group 22" transform="matrix(0.875, -0.485, 0.485, 0.875, 644.733, 2605.085)">
      <ellipse id="Ellipse_26" data-name="Ellipse 26" cx="6.507" cy="12.291" rx="6.507" ry="12.291" transform="translate(462.069 294.091) rotate(-86.019)" fill="#6cd584"/>
      <path id="Path_106" data-name="Path 106" d="M570.657,364.513q-40.382-18.549-82.944-5.772l2.359-33.9a143.9,143.9,0,0,1,82.944,5.772Z" transform="translate(-50.5 -51.16)" fill="none" stroke="#fff" stroke-miterlimit="10" stroke-width="2" opacity="0.495"/>
      <path id="Path_107" data-name="Path 107" d="M564.213,358.317a82.277,82.277,0,0,0-59.864-4.166l1.7-24.466a103.862,103.862,0,0,1,59.864,4.166Z" transform="translate(-55.108 -52.777)" fill="none" stroke="#fff" stroke-miterlimit="10" stroke-width="2" opacity="0.495"/>
      <ellipse id="Ellipse_27" data-name="Ellipse 27" cx="6.507" cy="12.291" rx="6.507" ry="12.291" transform="translate(466.597 291.507) rotate(-86.019)" fill="none" stroke="#fff" stroke-miterlimit="10" stroke-width="2" opacity="0.495"/>
    </g>
    <g id="Group_23" data-name="Group 23" transform="matrix(0.988, 0.156, -0.156, 0.988, 850.544, 2382.83)">
      <ellipse id="Ellipse_26-2" data-name="Ellipse 26" cx="6.507" cy="12.291" rx="6.507" ry="12.291" transform="translate(462.069 294.091) rotate(-86.019)" fill="#57b894"/>
      <path id="Path_106-2" data-name="Path 106" d="M570.657,364.513q-40.382-18.549-82.944-5.772l2.359-33.9a143.9,143.9,0,0,1,82.944,5.772Z" transform="translate(-50.5 -51.16)" fill="none" stroke="#fff" stroke-miterlimit="10" stroke-width="2" opacity="0.5"/>
      <path id="Path_107-2" data-name="Path 107" d="M564.213,358.317a82.277,82.277,0,0,0-59.864-4.166l1.7-24.466a103.862,103.862,0,0,1,59.864,4.166Z" transform="translate(-55.108 -52.777)" fill="none" stroke="#fff" stroke-miterlimit="10" stroke-width="2" opacity="0.5"/>
      <ellipse id="Ellipse_27-2" data-name="Ellipse 27" cx="6.507" cy="12.291" rx="6.507" ry="12.291" transform="translate(466.597 291.507) rotate(-86.019)" fill="none" stroke="#fff" stroke-miterlimit="10" stroke-width="2" opacity="0.5"/>
    </g>
    <g id="Group_24" data-name="Group 24" transform="translate(649.167 2739.729) rotate(-19)">
      <ellipse id="Ellipse_26-3" data-name="Ellipse 26" cx="6.507" cy="12.291" rx="6.507" ry="12.291" transform="translate(462.069 294.091) rotate(-86.019)" fill="#57b894"/>
      <path id="Path_106-3" data-name="Path 106" d="M570.657,364.513q-40.382-18.549-82.944-5.772l2.359-33.9a143.9,143.9,0,0,1,82.944,5.772Z" transform="translate(-50.5 -51.16)" fill="none" stroke="#fff" stroke-miterlimit="10" stroke-width="2" opacity="0.5"/>
      <path id="Path_107-3" data-name="Path 107" d="M564.213,358.317a82.277,82.277,0,0,0-59.864-4.166l1.7-24.466a103.862,103.862,0,0,1,59.864,4.166Z" transform="translate(-55.108 -52.777)" fill="none" stroke="#fff" stroke-miterlimit="10" stroke-width="2" opacity="0.5"/>
      <ellipse id="Ellipse_27-3" data-name="Ellipse 27" cx="6.507" cy="12.291" rx="6.507" ry="12.291" transform="translate(466.597 291.507) rotate(-86.019)" fill="none" stroke="#fff" stroke-miterlimit="10" stroke-width="2" opacity="0.5"/>
    </g>
  </g>
</svg>
