<svg xmlns="http://www.w3.org/2000/svg" width="176.494" height="308.947" viewBox="0 0 176.494 308.947">
  <g id="Group_29" data-name="Group 29" transform="translate(-354.284 -2608.509)">
    <g id="Group_25" data-name="Group 25" transform="matrix(-0.875, -0.485, 0.485, -0.875, 500.824, 2689.186)">
      <ellipse id="Ellipse_26" data-name="Ellipse 26" cx="6.507" cy="12.291" rx="6.507" ry="12.291" transform="matrix(0.069, 0.998, -0.998, 0.069, 49.379, 17.556)" fill="#57b894"/>
      <path id="Path_106" data-name="Path 106" d="M82.944,0Q42.562,18.549,0,5.772l2.359,33.9A143.9,143.9,0,0,0,85.3,33.9Z" transform="translate(0 0)" fill="none" stroke="#fff" stroke-miterlimit="10" stroke-width="2" opacity="0.5"/>
      <path id="Path_107" data-name="Path 107" d="M59.864,0A82.277,82.277,0,0,1,0,4.166L1.7,28.632a103.861,103.861,0,0,0,59.864-4.166Z" transform="translate(12.028 7.814)" fill="none" stroke="#fff" stroke-miterlimit="10" stroke-width="2" opacity="0.5"/>
      <ellipse id="Ellipse_27" data-name="Ellipse 27" cx="6.507" cy="12.291" rx="6.507" ry="12.291" transform="matrix(0.069, 0.998, -0.998, 0.069, 53.907, 20.14)" fill="none" stroke="#fff" stroke-miterlimit="10" stroke-width="2" opacity="0.5"/>
    </g>
    <g id="Group_26" data-name="Group 26" transform="translate(446.515 2782.72) rotate(171)">
      <ellipse id="Ellipse_26-2" data-name="Ellipse 26" cx="6.507" cy="12.291" rx="6.507" ry="12.291" transform="matrix(0.069, 0.998, -0.998, 0.069, 49.379, 17.556)" fill="#57b894"/>
      <path id="Path_106-2" data-name="Path 106" d="M82.944,0Q42.562,18.549,0,5.772l2.359,33.9A143.9,143.9,0,0,0,85.3,33.9Z" transform="translate(0 0)" fill="none" stroke="#fff" stroke-miterlimit="10" stroke-width="2" opacity="0.5"/>
      <path id="Path_107-2" data-name="Path 107" d="M59.864,0A82.277,82.277,0,0,1,0,4.166L1.7,28.632a103.862,103.862,0,0,0,59.864-4.166Z" transform="translate(12.028 7.814)" fill="none" stroke="#fff" stroke-miterlimit="10" stroke-width="2" opacity="0.5"/>
      <ellipse id="Ellipse_27-2" data-name="Ellipse 27" cx="6.507" cy="12.291" rx="6.507" ry="12.291" transform="matrix(0.069, 0.998, -0.998, 0.069, 53.907, 20.14)" fill="none" stroke="#fff" stroke-miterlimit="10" stroke-width="2" opacity="0.5"/>
    </g>
    <g id="Group_27" data-name="Group 27" transform="translate(515.292 2915.668) rotate(-161)">
      <ellipse id="Ellipse_26-3" data-name="Ellipse 26" cx="6.507" cy="12.291" rx="6.507" ry="12.291" transform="matrix(0.069, 0.998, -0.998, 0.069, 49.379, 17.556)" fill="#57b894"/>
      <path id="Path_106-3" data-name="Path 106" d="M82.944,0Q42.562,18.549,0,5.772l2.359,33.9A143.9,143.9,0,0,0,85.3,33.9Z" transform="translate(0 0)" fill="none" stroke="#fff" stroke-miterlimit="10" stroke-width="2" opacity="0.5"/>
      <path id="Path_107-3" data-name="Path 107" d="M59.864,0A82.277,82.277,0,0,1,0,4.166L1.7,28.632a103.862,103.862,0,0,0,59.864-4.166Z" transform="translate(12.028 7.814)" fill="none" stroke="#fff" stroke-miterlimit="10" stroke-width="2" opacity="0.5"/>
      <ellipse id="Ellipse_27-3" data-name="Ellipse 27" cx="6.507" cy="12.291" rx="6.507" ry="12.291" transform="matrix(0.069, 0.998, -0.998, 0.069, 53.907, 20.14)" fill="none" stroke="#fff" stroke-miterlimit="10" stroke-width="2" opacity="0.5"/>
    </g>
  </g>
</svg>
