<svg xmlns="http://www.w3.org/2000/svg" xmlns:xlink="http://www.w3.org/1999/xlink" width="550.699" height="421.758" viewBox="0 0 550.699 421.758">
  <defs>
    <clipPath id="clip-path">
      <path id="Path_109" data-name="Path 109" d="M5216.754,3641.582s37.5-47.144,18.963-84.25-65.161-25.885-93.1-64.177-9.064-57.358-38.67-81.674-61.444,2.546-101.788-21.508-50.306-55.326-89.14-71.324-121.372,55.677-139.59,87.232c-40.848,70.75,0,277.282,0,277.282h443.321Z" transform="translate(-4755.278 -3316.351)" fill="#5fbc74"/>
    </clipPath>
    <clipPath id="clip-path-2">
      <path id="Path_111" data-name="Path 111" d="M5151.179,3595.366s32.168-40.444,16.269-72.278-55.9-22.206-79.867-55.057-7.776-49.208-33.175-70.069-52.713,2.184-87.324-18.451-43.157-47.464-76.473-61.189-104.125,47.765-119.755,74.836c-35.043,60.7,0,237.88,0,237.88h380.325Z" transform="translate(-4755.279 -3316.351)" fill="#509d62"/>
    </clipPath>
  </defs>
  <g id="Group_36" data-name="Group 36" transform="translate(0 5.757)">
    <g id="Group_39" data-name="Group 39" transform="translate(0)">
      <path id="Path_113" data-name="Path 113" d="M5278.637,3685.194s42.525-53.465,21.505-95.548-73.9-29.355-105.58-72.782-10.279-65.05-43.854-92.626-69.684,2.887-115.438-24.392-57.051-62.745-101.093-80.889c-17.132-7.058-45.471-14.621-70.595,0-38.941,22.661-75.09,77.064-87.714,98.929-46.325,80.237,0,314.465,0,314.465h502.77Z" transform="translate(-4755.279 -3316.351)" fill="#262626"/>
    </g>
    <g id="Mask_Group_2" data-name="Mask Group 2" transform="translate(0 49.188)" clip-path="url(#clip-path)">
      <path id="Path_112" data-name="Path 112" d="M5216.754,3641.582s37.5-47.144,18.963-84.25-65.161-25.885-93.1-64.177-9.064-57.358-38.67-81.674-61.444,2.546-101.788-21.508-50.306-55.326-89.14-71.324-121.372,55.677-139.59,87.232c-40.848,70.75,0,277.282,0,277.282h443.321Z" transform="translate(-4755.278 -3316.351)" fill="#5fbc74" stroke="rgba(0,0,0,0.18)" stroke-width="10"/>
    </g>
    <g id="Mask_Group_1" data-name="Mask Group 1" transform="translate(0 101.313)" clip-path="url(#clip-path-2)">
      <path id="Path_108" data-name="Path 108" d="M5151.179,3595.366s32.168-40.444,16.269-72.278-55.9-22.206-79.867-55.057-7.776-49.208-33.175-70.069-52.713,2.184-87.324-18.451-43.157-47.464-76.473-61.189-104.125,47.765-119.755,74.836c-35.043,60.7,0,237.88,0,237.88h380.325Z" transform="translate(-4755.279 -3316.351)" fill="#509d62" stroke="rgba(0,0,0,0.18)" stroke-width="10"/>
    </g>
  </g>
</svg>
