<svg id="undraw_Finance_re_gnv2" xmlns="http://www.w3.org/2000/svg" width="448.45" height="320.98" viewBox="0 0 448.45 320.98">
  <path id="Path_9" data-name="Path 9" d="M256.236,296.528A37.764,37.764,0,1,1,294,258.764a37.764,37.764,0,0,1-37.764,37.764Zm0-73.955a36.191,36.191,0,1,0,36.191,36.191,36.191,36.191,0,0,0-36.191-36.191Z" transform="translate(-218.472 -221)" fill="#f2f2f2"/>
  <path id="Path_10" data-name="Path 10" d="M587.354,278.764a18.882,18.882,0,1,1,18.882-18.882A18.882,18.882,0,0,1,587.354,278.764Zm0-36.191a17.309,17.309,0,1,0,17.309,17.309A17.309,17.309,0,0,0,587.354,242.574Z" transform="translate(-293.107 -225.265)" fill="#f2f2f2"/>
  <path id="Path_11" data-name="Path 11" d="M755.714,394.485a21.242,21.242,0,1,1,21.242-21.242,21.242,21.242,0,0,1-21.242,21.242Zm0-40.911a19.669,19.669,0,1,0,19.669,19.669,19.669,19.669,0,0,0-19.669-19.669Z" transform="translate(-328.506 -248.935)" fill="#f2f2f2"/>
  <path id="Path_26" data-name="Path 26" d="M514.14,613.5l-7.522-3.167-5.16-37.708H432.743l-5.593,37.554-6.73,3.365a1.6,1.6,0,0,0,.715,3.027H513.52a1.6,1.6,0,0,0,.62-3.071Z" transform="translate(-261.348 -295.982)" fill="#e6e6e6"/>
  <path id="Path_27" data-name="Path 27" d="M601.692,564.286H264.144a6.687,6.687,0,0,1-6.672-6.687V510H608.364v47.6a6.687,6.687,0,0,1-6.672,6.687Z" transform="translate(-226.788 -282.628)" fill="#ccc"/>
  <path id="Path_28" data-name="Path 28" d="M608.633,481.207H257.08V277.542a8.071,8.071,0,0,1,8.062-8.062h335.43a8.071,8.071,0,0,1,8.062,8.062Z" transform="translate(-226.705 -231.338)" fill="#3f3d56"/>
  <path id="Path_29" data-name="Path 29" d="M591.643,470.431H282.083a6.222,6.222,0,0,1-6.215-6.215V294.484a6.222,6.222,0,0,1,6.215-6.215h309.56a6.222,6.222,0,0,1,6.215,6.215V464.216a6.222,6.222,0,0,1-6.215,6.215Z" transform="translate(-230.711 -235.345)" fill="#fff"/>
  <path id="Path_30" data-name="Path 30" d="M592.069,628.554H292.315a.787.787,0,0,1,0-1.574H592.069a.787.787,0,0,1,0,1.574Z" transform="translate(-234.051 -307.574)" fill="#ccc"/>
  <path id="Path_31" data-name="Path 31" d="M571.915,459.914h-251.4a.787.787,0,0,1-.787-.787V338.633a.787.787,0,0,1,1.574,0V458.341H571.915a.787.787,0,0,1,0,1.574Z" transform="translate(-240.065 -245.917)" fill="#3f3d56"/>
  <path id="Path_32" data-name="Path 32" d="M382.172,472.191H359.307a2.338,2.338,0,0,1-2.335-2.335v-31.52A2.338,2.338,0,0,1,359.307,436h22.865a2.338,2.338,0,0,1,2.335,2.335v31.52a2.338,2.338,0,0,1-2.336,2.335Z" transform="translate(-248.006 -266.848)" fill="#6cd584"/>
  <path id="Path_33" data-name="Path 33" d="M435.172,464.087H412.307a2.338,2.338,0,0,1-2.335-2.335V400.335A2.338,2.338,0,0,1,412.307,398h22.865a2.338,2.338,0,0,1,2.335,2.335v61.417a2.338,2.338,0,0,1-2.336,2.335Z" transform="translate(-259.308 -258.744)" fill="#6cd584"/>
  <path id="Path_34" data-name="Path 34" d="M488.172,472.191H465.307a2.338,2.338,0,0,1-2.336-2.335v-31.52A2.338,2.338,0,0,1,465.307,436h22.865a2.338,2.338,0,0,1,2.336,2.335v31.52A2.338,2.338,0,0,1,488.172,472.191Z" transform="translate(-270.61 -266.848)" fill="#6cd584"/>
  <path id="Path_35" data-name="Path 35" d="M541.172,460.889H518.307a2.287,2.287,0,0,1-2.335-2.23v-73.43a2.287,2.287,0,0,1,2.336-2.23h22.865a2.287,2.287,0,0,1,2.336,2.229v73.43a2.287,2.287,0,0,1-2.336,2.229Z" transform="translate(-281.912 -255.546)" fill="#6cd584"/>
  <path id="Path_36" data-name="Path 36" d="M594.172,455.131H571.307a2.338,2.338,0,0,1-2.336-2.335v-94.46A2.338,2.338,0,0,1,571.307,356h22.865a2.338,2.338,0,0,1,2.336,2.335V452.8a2.338,2.338,0,0,1-2.336,2.335Z" transform="translate(-293.214 -249.788)" fill="#6cd584"/>
  <circle id="Ellipse_2" data-name="Ellipse 2" cx="4.721" cy="4.721" r="4.721" transform="translate(118.013 150.27)" fill="#3f3d56"/>
  <circle id="Ellipse_3" data-name="Ellipse 3" cx="4.721" cy="4.721" r="4.721" transform="translate(159.711 119.587)" fill="#3f3d56"/>
  <circle id="Ellipse_4" data-name="Ellipse 4" cx="4.721" cy="4.721" r="4.721" transform="translate(201.409 150.27)" fill="#3f3d56"/>
  <circle id="Ellipse_5" data-name="Ellipse 5" cx="4.721" cy="4.721" r="4.721" transform="translate(243.107 104.638)" fill="#3f3d56"/>
  <circle id="Ellipse_6" data-name="Ellipse 6" cx="4.721" cy="4.721" r="4.721" transform="translate(284.805 87.33)" fill="#3f3d56"/>
  <path id="Path_37" data-name="Path 37" d="M239.367,180.938l-41.8-31.307L156.344,180.51l-.944-1.259,42.17-31.586,41.6,31.158,41.337-45.237.166-.068,41.7-16.8.589,1.459-41.532,16.733Z" transform="translate(-33.138 -24.89)" fill="#3f3d56"/>
</svg>
