<svg xmlns="http://www.w3.org/2000/svg" width="383.688" height="311.225" viewBox="0 0 383.688 311.225">
  <g id="undraw_stock_prices_afrt" transform="translate(0)">
    <path id="Path_62" data-name="Path 62" d="M274.368,95.638a2.143,2.143,0,0,0-2.141,2.141v73.028a2.143,2.143,0,0,0,2.141,2.141H523.381a2.143,2.143,0,0,0,2.141-2.141V97.779a2.143,2.143,0,0,0-2.141-2.141Z" transform="translate(-239.802 -95.638)" fill="#e6e6e6"/>
    <path id="Path_63" data-name="Path 63" d="M279.06,169.051H521.624v-66.58H279.06Z" transform="translate(-241.27 -97.106)" fill="#fff"/>
    <path id="Path_64" data-name="Path 64" d="M548.036,169.678a3.547,3.547,0,1,0,0,7.094h14.187a3.547,3.547,0,0,0,0-7.094Z" transform="translate(-298.299 -111.546)" fill="#6cd584"/>
    <rect id="Rectangle_9" data-name="Rectangle 9" width="163.771" height="0.934" transform="translate(103.699 51.253)" fill="#e6e6e6"/>
    <circle id="Ellipse_12" data-name="Ellipse 12" cx="20.658" cy="20.658" r="20.658" transform="translate(48.808 17.997)" fill="#e6e6e6"/>
    <path id="Path_65" data-name="Path 65" d="M363.2,149.56l-.517-.777L379.7,137.438l11.67,5.6,16.786-10.724.227.1,33.164,14.147L468.133,133.5l25.821,10.468,32.444,6.6.619.7-32.878-6.211-25.97-10.53-26.6,13.066-33.331-14.218-16.808,10.738-11.659-5.6Z" transform="translate(-259.236 -103.518)" fill="#3f3d56"/>
    <path id="Path_66" data-name="Path 66" d="M366.038,170.3a3.033,3.033,0,1,0,0,6.066h31.728a3.033,3.033,0,0,0,.1-6.065H366.038Z" transform="translate(-259.306 -111.68)" fill="#e6e6e6"/>
    <path id="Path_6" data-name="Path 6" d="M325.341,142.072a1.239,1.239,0,0,0-1.752,0l-5.318,5.318V134.275a1.239,1.239,0,1,0-2.478,0V147.39l-5.318-5.318a1.239,1.239,0,0,0-1.752,1.752l7.433,7.433a1.239,1.239,0,0,0,1.752,0l7.433-7.433A1.239,1.239,0,0,0,325.341,142.072Z" transform="translate(-247.565 -103.673)" fill="#fff"/>
    <path id="Path_68" data-name="Path 68" d="M399.143,244.6A2.143,2.143,0,0,0,397,246.742V319.77a2.143,2.143,0,0,0,2.141,2.141H648.157a2.143,2.143,0,0,0,2.141-2.141V246.742a2.143,2.143,0,0,0-2.141-2.141Z" transform="translate(-266.61 -127.644)" fill="#e6e6e6"/>
    <path id="Path_69" data-name="Path 69" d="M403.836,318.014H646.4v-66.58H403.836Z" transform="translate(-268.079 -129.112)" fill="#fff"/>
    <path id="Path_70" data-name="Path 70" d="M672.812,318.643a3.547,3.547,0,0,0,0,7.094H687a3.547,3.547,0,1,0,0-7.094H672.81Z" transform="translate(-325.108 -143.552)" fill="#6cd584"/>
    <rect id="Rectangle_10" data-name="Rectangle 10" width="163.771" height="0.934" transform="translate(201.666 168.211)" fill="#e6e6e6"/>
    <circle id="Ellipse_13" data-name="Ellipse 13" cx="20.658" cy="20.658" r="20.658" transform="translate(146.775 134.955)" fill="#6cd584"/>
    <path id="Path_71" data-name="Path 71" d="M487.969,293.848l-.518-.776,17.018-11.345,11.67,5.6L532.925,276.6l.227.1,33.164,14.148,26.591-13.062,25.821,10.467,32.444-28.736.619.7-32.878,29.118L592.943,278.8l-26.6,13.066-33.331-14.218L516.2,288.391,504.548,282.8Z" transform="translate(-286.044 -130.848)" fill="#3f3d56"/>
    <path id="Path_72" data-name="Path 72" d="M490.8,319.264a3.033,3.033,0,0,0-.1,6.065h31.826a3.033,3.033,0,1,0,0-6.066Z" transform="translate(-286.101 -143.685)" fill="#e6e6e6"/>
    <path id="Path_7" data-name="Path 7" d="M433.5,291.549a1.239,1.239,0,0,0,1.752,0l5.318-5.318v13.115a1.239,1.239,0,1,0,2.478,0V286.23l5.318,5.318a1.239,1.239,0,0,0,1.752-1.752l-7.433-7.433a1.239,1.239,0,0,0-1.752,0L433.5,289.8a1.239,1.239,0,0,0,0,1.752Z" transform="translate(-274.374 -135.679)" fill="#fff"/>
    <path id="Path_56" data-name="Path 56" d="M233.069,393.565a2.143,2.143,0,0,0-2.141,2.141v73.028a2.144,2.144,0,0,0,2.141,2.141H482.082a2.143,2.143,0,0,0,2.141-2.141V395.706a2.143,2.143,0,0,0-2.141-2.141Z" transform="translate(-230.928 -159.65)" fill="#e6e6e6"/>
    <path id="Path_57" data-name="Path 57" d="M237.762,466.978H480.327V400.4H237.762Z" transform="translate(-232.397 -161.118)" fill="#fff"/>
    <path id="Path_58" data-name="Path 58" d="M506.737,467.606a3.547,3.547,0,0,0,0,7.094h14.187a3.547,3.547,0,0,0,0-7.094Z" transform="translate(-289.426 -175.558)" fill="#6cd584"/>
    <rect id="Rectangle_8" data-name="Rectangle 8" width="163.771" height="0.934" transform="translate(71.274 285.169)" fill="#e6e6e6"/>
    <circle id="Ellipse_11" data-name="Ellipse 11" cx="20.658" cy="20.658" r="20.658" transform="translate(16.383 251.912)" fill="#6cd584"/>
    <path id="Path_59" data-name="Path 59" d="M321.895,447.109l-.517-.776L338.4,434.986l11.67,5.6,16.786-10.727L400.242,444.1l26.59-13.062,25.818,10.471,32.444-13.033.619.7L452.839,442.6l-25.97-10.529-26.6,13.066-33.331-14.218-16.808,10.739-11.659-5.6Z" transform="translate(-250.362 -167.151)" fill="#3f3d56"/>
    <path id="Path_60" data-name="Path 60" d="M324.739,468.227a3.033,3.033,0,1,0,0,6.066h31.728a3.033,3.033,0,1,0,.1-6.065H324.739Z" transform="translate(-250.433 -175.691)" fill="#e6e6e6"/>
    <path id="Path_8" data-name="Path 8" d="M267.423,440.512a1.239,1.239,0,0,0,1.752,0l5.318-5.318v13.115a1.239,1.239,0,1,0,2.478,0V435.193l5.318,5.318a1.239,1.239,0,0,0,1.752-1.752l-7.433-7.433a1.239,1.239,0,0,0-1.752,0l-7.433,7.433A1.239,1.239,0,0,0,267.423,440.512Z" transform="translate(-238.691 -167.685)" fill="#fff"/>
  </g>
</svg>
