<svg xmlns="http://www.w3.org/2000/svg" width="291.501" height="377.291" viewBox="0 0 291.501 377.291">
  <g id="undraw_sentiment_analysis_jp6w" transform="translate(0 0)">
    <path id="Path_38" data-name="Path 38" d="M675.634,299.941l-52.194-38.005s-29.9-50.674-34.965-83.105-27.871-90.2-27.871-90.2v-30.4s-26.35-10.135-28.377,17.736,5.574,63.849,5.574,63.849,7.6,45.607-9.628,57.262L465.337,299.941s60.3,55.235,107.429,62.329l102.868,71.45Z" transform="translate(-384.133 -56.43)" fill="#ffb8b8"/>
    <path id="Path_39" data-name="Path 39" d="M316.063,260.519h-1.721c-15.5,0-24.215,18.3-14.029,29.987,3.278,3.761,8.261,6.365,15.75,6.5Z" transform="translate(-295.922 -162.695)" fill="#ffb8b8"/>
    <path id="Path_40" data-name="Path 40" d="M316.063,336.638h-1.721c-15.5,0-24.215,18.3-14.029,29.987,3.278,3.761,8.261,6.365,15.75,6.5Z" transform="translate(-295.922 -202.329)" fill="#ffb8b8"/>
    <path id="Path_41" data-name="Path 41" d="M316.063,412.758h-1.721c-15.5,0-24.215,18.3-14.029,29.987,3.278,3.761,8.261,6.365,15.75,6.5Z" transform="translate(-295.922 -241.963)" fill="#ffb8b8"/>
    <path id="Path_42" data-name="Path 42" d="M316.063,488.877h-1.721c-15.5,0-24.215,18.3-14.029,29.987,3.278,3.761,8.261,6.365,15.75,6.5Z" transform="translate(-295.922 -281.597)" fill="#ffb8b8"/>
    <path id="Path_43" data-name="Path 43" d="M469.962,171.491h-1.508V130.177a23.911,23.911,0,0,0-23.911-23.911H357.014A23.911,23.911,0,0,0,333.1,130.177v226.65a23.911,23.911,0,0,0,23.911,23.911h87.529a23.911,23.911,0,0,0,23.911-23.911V200.9h1.508Z" transform="translate(-315.281 -82.379)" fill="#3f3d56"/>
    <path id="Path_44" data-name="Path 44" d="M470.531,137.1V363.417a17.928,17.928,0,0,1-6.557,13.834,16.579,16.579,0,0,1-1.414,1.039,17.776,17.776,0,0,1-9.886,2.985h-87.95a17.651,17.651,0,0,1-4.231-.507,17.857,17.857,0,0,1-13.626-17.351V137.1a17.859,17.859,0,0,1,17.856-17.857H375.4a8.482,8.482,0,0,0,7.854,11.685h50.142a8.492,8.492,0,0,0,7.86-11.685h11.422A17.859,17.859,0,0,1,470.531,137.1Z" transform="translate(-322.447 -89.136)" fill="#6cd584"/>
    <path id="Path_45" data-name="Path 45" d="M437.36,469.842s8.633,23.981,1.919,37.411,10.552,28.778,10.552,28.778,45.085-23.022,39.33-34.533-15.348-26.859-13.43-36.452Z" transform="translate(-369.566 -269.189)" fill="#ffb8b8"/>
    <circle id="Ellipse_7" data-name="Ellipse 7" cx="30.696" cy="30.696" r="30.696" transform="translate(53.885 148.374)" fill="#ffb8b8"/>
    <path id="Path_46" data-name="Path 46" d="M497.261,588.649a17.858,17.858,0,0,1-2.736,2.8,16.586,16.586,0,0,1-1.414,1.039c-2.833,1.885-6.228,2.478-9.886,2.478H405.541l1.343-37.286,8.635-19.185a40.068,40.068,0,0,0,6.2,4c.517.279,1.064.557,1.637.831,8.088,3.907,21.308,7.343,34.124-2.225A48.88,48.88,0,0,0,469.289,527.8l23.928,13.565,1.257,14.7Z" transform="translate(-352.998 -301.866)" fill="#fff"/>
    <path id="Path_47" data-name="Path 47" d="M399.552,520.151l-1.2,12.552-.633,6.633-.948,9.876-4.049,42.272H369.639a17.65,17.65,0,0,1-4.231-.507l-9.1-42.085.264-.172Z" transform="translate(-327.363 -297.881)" fill="#2f2e41"/>
    <path id="Path_48" data-name="Path 48" d="M551.917,520.084v44.852a17.928,17.928,0,0,1-6.557,13.834,16.6,16.6,0,0,1-1.414,1.039,17.776,17.776,0,0,1-9.886,2.985H503.174c.674-14.173,1.865-28.007,3.258-40.058.6-5.133,1.231-9.942,1.88-14.315,2.088-14.1,4.328-23.67,5.934-24.962l10.621,7.008Z" transform="translate(-403.834 -289.189)" fill="#2f2e41"/>
    <path id="Path_49" data-name="Path 49" d="M373.454,613.609l-1.1,8.057h-7.626a17.65,17.65,0,0,1-4.231-.507,17.857,17.857,0,0,1-13.626-17.351v-1.622l3.567-23.112,1.221-.172,5.493-.786Z" transform="translate(-322.447 -328.063)" fill="#2f2e41"/>
    <path id="Path_50" data-name="Path 50" d="M591.111,550.345v39a17.928,17.928,0,0,1-6.557,13.834,16.582,16.582,0,0,1-1.414,1.039L578.447,583.8l6.056-16Z" transform="translate(-443.028 -313.602)" fill="#2f2e41"/>
    <path id="Path_51" data-name="Path 51" d="M463.732,353.849a35.861,35.861,0,0,0-20.4-15.594l-6.237,4.989,2.425-5.82a33.011,33.011,0,0,0-6.164-.356l-5.611,7.215,2.323-6.968a35.518,35.518,0,0,0-24.5,14.574c-7.142,10.3-8.347,24.62-1.323,35,1.928-5.926,4.269-11.486,6.2-17.412a17.54,17.54,0,0,0,4.569.022l2.346-5.474.655,5.243c7.272-.634,18.057-2.024,24.951-3.3l-.67-4.022,4.01,3.342c2.112-.486,3.366-.927,3.262-1.264,5.127,8.265,10.207,13.545,15.334,21.81C466.845,374.175,470.281,364.485,463.732,353.849Z" transform="translate(-349.879 -202.542)" fill="#2f2e41"/>
    <ellipse id="Ellipse_8" data-name="Ellipse 8" cx="2.078" cy="4.156" rx="2.078" ry="4.156" transform="translate(110.075 173.95)" fill="#ffb8b8"/>
    <ellipse id="Ellipse_9" data-name="Ellipse 9" cx="38.259" cy="85.639" rx="38.259" ry="85.639" transform="translate(141.506 115.306)" fill="#ffb8b8"/>
    <path id="Path_52" data-name="Path 52" d="M372.881,230.572a10.135,10.135,0,1,1,10.135-10.135A10.135,10.135,0,0,1,372.881,230.572Zm0-19.256A9.121,9.121,0,1,0,382,220.437a9.121,9.121,0,0,0-9.121-9.121Z" transform="translate(-330.716 -136.548)" opacity="0.2"/>
    <circle id="Ellipse_10" data-name="Ellipse 10" cx="1.52" cy="1.52" r="1.52" transform="translate(36.591 79.835)" opacity="0.2"/>
    <circle id="Ellipse_11" data-name="Ellipse 11" cx="1.52" cy="1.52" r="1.52" transform="translate(44.192 79.835)" opacity="0.2"/>
    <path id="Path_53" data-name="Path 53" d="M382.483,237.746h-7.6a.507.507,0,0,1,0-1.013h7.6a.507.507,0,0,1,0,1.013Z" transform="translate(-336.771 -150.31)" opacity="0.2"/>
    <path id="Path_54" data-name="Path 54" d="M556.835,230.572a10.135,10.135,0,1,1,10.135-10.135A10.135,10.135,0,0,1,556.835,230.572Zm0-19.256a9.121,9.121,0,1,0,9.121,9.121,9.121,9.121,0,0,0-9.121-9.121Z" transform="translate(-426.497 -136.548)" opacity="0.2"/>
    <circle id="Ellipse_12" data-name="Ellipse 12" cx="1.52" cy="1.52" r="1.52" transform="translate(124.764 79.835)" opacity="0.2"/>
    <circle id="Ellipse_13" data-name="Ellipse 13" cx="1.52" cy="1.52" r="1.52" transform="translate(132.365 79.835)" opacity="0.2"/>
    <path id="Path_55" data-name="Path 55" d="M566.437,238.673a.506.506,0,0,1-.252-.067,6.625,6.625,0,0,0-7.1,0,.507.507,0,1,1-.506-.878,7.659,7.659,0,0,1,8.107,0,.507.507,0,0,1-.253.946Z" transform="translate(-432.553 -150.224)" opacity="0.2"/>
    <path id="Path_56" data-name="Path 56" d="M454.572,229.67a20.577,20.577,0,1,1,20.577-20.577A20.577,20.577,0,0,1,454.572,229.67Zm0-39.1a18.519,18.519,0,1,0,18.519,18.519,18.519,18.519,0,0,0-18.519-18.519Z" transform="translate(-367.814 -125.205)" fill="#fff"/>
    <circle id="Ellipse_14" data-name="Ellipse 14" cx="3.087" cy="3.087" r="3.087" transform="translate(75.441 75.658)" fill="#fff"/>
    <circle id="Ellipse_15" data-name="Ellipse 15" cx="3.087" cy="3.087" r="3.087" transform="translate(90.873 75.658)" fill="#fff"/>
    <path id="Path_57" data-name="Path 57" d="M466.877,247.08a16.347,16.347,0,0,1-8.8-3.01,1.029,1.029,0,0,1,1.119-1.726c5.453,3.535,10.1,3.561,14.208.078a1.029,1.029,0,1,1,1.33,1.569A11.938,11.938,0,0,1,466.877,247.08Z" transform="translate(-380.108 -153.146)" fill="#fff"/>
    <path id="Path_58" data-name="Path 58" d="M237.307,231.32H223.932v-2.057h11.317V217.946h2.058Z" transform="translate(-116.597 -113.48)" fill="#fff"/>
    <path id="Path_59" data-name="Path 59" d="M112.228,117.558H110.17V104.183h13.375v2.058H112.228Z" transform="translate(-57.363 -54.246)" fill="#fff"/>
  </g>
</svg>
